<?xml version="1.0" encoding="utf-8"?>
<!-- Generator: Adobe Illustrator 23.0.0, SVG Export Plug-In . SVG Version: 6.00 Build 0)  -->
<svg version="1.1" id="Layer_1" xmlns="http://www.w3.org/2000/svg" xmlns:xlink="http://www.w3.org/1999/xlink" x="0px" y="0px"
	 viewBox="0 0 36 36" style="enable-background:new 0 0 36 36;" xml:space="preserve">
<style type="text/css">
	.st0{fill:#0B1432;}
	.st1{fill-rule:evenodd;clip-rule:evenodd;fill:#FFFFFF;}
	.st2{filter:url(#Adobe_OpacityMaskFilter);}
	.st3{mask:url(#mask-2_1_);fill-rule:evenodd;clip-rule:evenodd;fill:#FFFFFF;}
</style>
<title>7C2AB8C4-21A2-4B44-BA3A-C91650135109</title>
<desc>Created with sketchtool.</desc>
<g id="Asset-Artboard-Page">
	<g>
		<rect id="Bounding-Box" x="6.4" y="6" class="st0" width="24" height="24"/>
		<g id="Group-8">
			<path id="Fill-1" class="st1" d="M17.9,14.7c-2,0-3.6,1.6-3.6,3.5c0,1.9,1.6,3.5,3.6,3.5c2,0,3.6-1.6,3.6-3.5
				C21.5,16.2,19.9,14.7,17.9,14.7"/>
			<path id="Fill-3" class="st1" d="M23.5,14c-0.7,0-1.3-0.6-1.3-1.3c0-0.7,0.6-1.3,1.3-1.3c0.7,0,1.3,0.6,1.3,1.3
				C24.8,13.4,24.2,14,23.5,14 M17.9,23.5c-3,0-5.5-2.4-5.5-5.4s2.4-5.4,5.5-5.4c3,0,5.5,2.4,5.5,5.4S20.9,23.5,17.9,23.5 M22,9.8
				h-8.3c-1.1,0-2.2,0.4-3,1.2c-0.8,0.8-1.2,1.8-1.2,2.9v8.7c0,1.1,0.4,2.2,1.2,2.9c0.8,0.8,1.9,1.2,3,1.2H22c1.1,0,2.2-0.4,3-1.2
				c0.8-0.8,1.2-1.8,1.2-2.9v-8.7c0-1.1-0.4-2.2-1.2-2.9C24.2,10.2,23.2,9.8,22,9.8"/>
			<g id="Group-7" transform="translate(0.000000, 0.515077)">
				<g id="Clip-6">
				</g>
				<defs>
					<filter id="Adobe_OpacityMaskFilter" filterUnits="userSpaceOnUse" x="0" y="0.2" width="35.8" height="35.1">
						<feColorMatrix  type="matrix" values="1 0 0 0 0  0 1 0 0 0  0 0 1 0 0  0 0 0 1 0"/>
					</filter>
				</defs>
				<mask maskUnits="userSpaceOnUse" x="0" y="0.2" width="35.8" height="35.1" id="mask-2_1_">
					<g class="st2">
						<polygon id="path-1_1_" class="st1" points="0,0.2 35.8,0.2 35.8,35.3 0,35.3 						"/>
					</g>
				</mask>
				<path id="Fill-5" class="st3" d="M27.8,22.1c0,3.1-2.6,5.7-5.8,5.7h-8.3c-3.2,0-5.8-2.5-5.8-5.7v-8.7c0-3.1,2.6-5.7,5.8-5.7H22
					c3.2,0,5.8,2.5,5.8,5.7V22.1z M17.9,0.2C8,0.2,0,8,0,17.7c0,9.7,8,17.6,17.9,17.6s17.9-7.9,17.9-17.6C35.8,8,27.8,0.2,17.9,0.2
					L17.9,0.2z"/>
			</g>
		</g>
	</g>
</g>
</svg>
