<?xml version="1.0" encoding="utf-8"?>
<!-- Generator: Adobe Illustrator 23.0.0, SVG Export Plug-In . SVG Version: 6.00 Build 0)  -->
<svg version="1.1" id="Layer_1" xmlns="http://www.w3.org/2000/svg" xmlns:xlink="http://www.w3.org/1999/xlink" x="0px" y="0px"
	 viewBox="0 0 36 36" style="enable-background:new 0 0 36 36;" xml:space="preserve">
<style type="text/css">
	.st0{fill:#0B1432;}
	.st1{fill-rule:evenodd;clip-rule:evenodd;fill:#FFFFFF;}
	.st2{filter:url(#Adobe_OpacityMaskFilter);}
	.st3{mask:url(#mask-4_1_);fill-rule:evenodd;clip-rule:evenodd;fill:#FFFFFF;}
</style>
<rect id="Bounding-Box_1_" x="6" y="6" class="st0" width="24" height="24"/>
<title>A0F1D8B4-0D0E-41E5-AE30-58B95722EE98</title>
<desc>Created with sketchtool.</desc>
<g id="Asset-Artboard-Page">
	<g>
		<g id="Group-3">
			<g id="Clip-2">
			</g>
		</g>
		<g id="Group-5">
			<polygon id="Fill-1" class="st1" points="16,22 22,18.5 16,15 			"/>
			<g id="Group-4">
				<g id="Clip-3">
				</g>
				<defs>
					<filter id="Adobe_OpacityMaskFilter" filterUnits="userSpaceOnUse" x="0" y="0.2" width="35.8" height="35.8">
						<feColorMatrix  type="matrix" values="1 0 0 0 0  0 1 0 0 0  0 0 1 0 0  0 0 0 1 0"/>
					</filter>
				</defs>
				<mask maskUnits="userSpaceOnUse" x="0" y="0.2" width="35.8" height="35.8" id="mask-4_1_">
					<g class="st2">
						<polygon id="path-3_1_" class="st1" points="0,0.2 35.8,0.2 35.8,36 0,36 						"/>
					</g>
				</mask>
				<path id="Fill-2" class="st3" d="M26.9,21.3c0,3.1-3.1,3.1-3.1,3.1H12C9,24.4,9,21.3,9,21.3v-6.4c0-3.1,3.1-3.1,3.1-3.1h11.7
					c3.1,0,3.1,3.1,3.1,3.1V21.3z M17.9,0.2C8,0.2,0,8.2,0,18.1C0,28,8,36,17.9,36c9.9,0,17.9-8,17.9-17.9
					C35.8,8.2,27.8,0.2,17.9,0.2L17.9,0.2z"/>
			</g>
		</g>
	</g>
</g>
</svg>
