<svg width="500" height="500" viewBox="0 0 500 500" xmlns="http://www.w3.org/2000/svg" fill-rule="evenodd" clip-rule="evenodd" stroke-linejoin="round" stroke-miterlimit="2"><g fill-rule="nonzero"><path d="M249.795 1.145L17.204 83.399l36.671 305.642 196.066 108.114 197.09-109.283 36.67-306.08" fill="#b2b2b2"/><path d="M460.471 99.47L248.92 27.15v444.145l177.365-98.033" fill="#b52e31"/><path d="M43.21 100.931l31.557 273.353 174.444 97.157V27.297" fill="#e23237"/><path d="M298.154 248.2l-48.359-102.27-42.953 101.978H298.3l-.146.292zm18.555 42.807h-128.86l-28.782 72.32-53.619 1.023L249.065 43.514 397.94 364.496h-49.674L316.709 291.3v-.293z" fill="#f2f2f2"/><path d="M249.065 43.368l.584 102.854 48.213 102.124h-48.797v42.661h67.498l31.557 73.196 51.428 1.315" fill="#b2b2b2"/></g></svg>