<?xml version="1.0" encoding="utf-8"?>
<!-- Generator: Adobe Illustrator 23.0.0, SVG Export Plug-In . SVG Version: 6.00 Build 0)  -->
<svg version="1.1" id="Layer_1" xmlns="http://www.w3.org/2000/svg" xmlns:xlink="http://www.w3.org/1999/xlink" x="0px" y="0px"
	 viewBox="0 0 36 36" style="enable-background:new 0 0 36 36;" xml:space="preserve">
<style type="text/css">
	.st0{fill:#0B1432;}
	.st1{filter:url(#Adobe_OpacityMaskFilter);}
	.st2{fill-rule:evenodd;clip-rule:evenodd;fill:#FFFFFF;}
	.st3{mask:url(#mask-4_1_);fill-rule:evenodd;clip-rule:evenodd;fill:#FFFFFF;}
</style>
<title>0D5C0E5F-3DBB-4998-9D5E-820AA0FE2EF7</title>
<desc>Created with sketchtool.</desc>
<g id="Asset-Artboard-Page">
	<g>
		<rect id="Bounding-Box" x="6" y="6" class="st0" width="24" height="24"/>
		<g id="Group-3">
			<g id="Clip-2">
			</g>
		</g>
		<g>
			<defs>
				<filter id="Adobe_OpacityMaskFilter" filterUnits="userSpaceOnUse" x="0" y="0" width="36" height="36">
					<feColorMatrix  type="matrix" values="1 0 0 0 0  0 1 0 0 0  0 0 1 0 0  0 0 0 1 0"/>
				</filter>
			</defs>
			<mask maskUnits="userSpaceOnUse" x="0" y="0" width="36" height="36" id="mask-4_1_">
				<g class="st1">
					<polygon id="path-3_1_" class="st2" points="0,0 36,0 36,36 0,36 					"/>
				</g>
			</mask>
			<path id="Fill-1" class="st3" d="M22,15l-0.2,2.7H19V27h-3.5v-9.4h-1.9V15h1.9v-1.8c0-0.8,0-2,0.6-2.8C16.7,9.5,17.6,9,19,9
				c2.3,0,3.3,0.3,3.3,0.3l-0.5,2.8c0,0-0.8-0.2-1.5-0.2s-1.4,0.3-1.4,1V15H22z M18,0C8.1,0,0,8.1,0,18c0,9.9,8.1,18,18,18
				c9.9,0,18-8.1,18-18C36,8.1,27.9,0,18,0L18,0z"/>
		</g>
	</g>
</g>
</svg>
