<?xml version="1.0" ?><svg height="32" id="svg2" version="1.1" viewBox="0 0 32 32" width="32" xml:space="preserve" xmlns="http://www.w3.org/2000/svg" xmlns:cc="http://creativecommons.org/ns#" xmlns:dc="http://purl.org/dc/elements/1.1/" xmlns:inkscape="http://www.inkscape.org/namespaces/inkscape" xmlns:rdf="http://www.w3.org/1999/02/22-rdf-syntax-ns#" xmlns:sodipodi="http://sodipodi.sourceforge.net/DTD/sodipodi-0.dtd" xmlns:svg="http://www.w3.org/2000/svg"><defs id="defs6"/><g id="g10" transform="matrix(1.3333333,0,0,-1.3333333,0,32)"><rect height="7.0871224" id="rect309" ry="1.7062995" style="fill:none;fill-opacity:1;stroke:#333333;stroke-width:0.77409285;stroke-linecap:round;stroke-linejoin:round;stroke-miterlimit:4;stroke-dasharray:none;stroke-opacity:1" transform="matrix(0.99768982,0.06793393,0.06793393,-0.99768982,0,0)" width="15.591668" x="5.2250323" y="-12.784301"/><g aria-label="SALE" id="text313" style="font-style:normal;font-weight:normal;font-size:2.91164541px;line-height:1.25;font-family:sans-serif;text-align:center;letter-spacing:0px;word-spacing:0px;text-anchor:middle;fill:#333333;fill-opacity:1;stroke:none;stroke-width:0.07279115" transform="matrix(0.99768982,0.06793393,0.06793393,-0.99768982,0,0)"><path d="m 9.8616671,-9.7559268 c 0.049498,-0.238755 0.5706829,-0.1368474 0.7570279,0.040763 l 0.197992,-0.4367472 c -0.04368,-0.03494 -0.238755,-0.174698 -0.634739,-0.197991 -0.623092,-0.03494 -0.8443771,0.253313 -0.8822285,0.5561238 -0.098996,0.8123491 1.0598385,0.6172688 0.9812245,0.9841361 -0.04659,0.2241967 -0.6463852,0.1339357 -0.8764052,-0.1281124 L 9.148314,-8.5155659 c 0.1688754,0.1252008 0.4658633,0.2620481 0.7774093,0.2940762 0.3348397,0.03494 0.9142567,-0.01747 0.9579317,-0.5939757 C 10.936064,-9.5492 9.7946993,-9.4414691 9.8616671,-9.7559268 Z" id="path13" style="font-style:normal;font-variant:normal;font-weight:bold;font-stretch:normal;font-family:'MADE GoodTime Grotesk';-inkscape-font-specification:'MADE GoodTime Grotesk Bold';text-align:center;text-anchor:middle;fill:#333333;fill-opacity:1;stroke-width:0.07279115"/><path d="m 12.559125,-8.2651644 h 0.62018 l -0.771586,-2.0381516 h -0.596887 l -0.768675,2.0381516 h 0.620181 l 0.125201,-0.361044 h 0.646385 z m -0.605623,-0.8327306 0.157229,-0.4483934 0.157229,0.4483934 z" id="path15" style="font-style:normal;font-variant:normal;font-weight:bold;font-stretch:normal;font-family:'MADE GoodTime Grotesk';-inkscape-font-specification:'MADE GoodTime Grotesk Bold';text-align:center;text-anchor:middle;fill:#333333;fill-opacity:1;stroke-width:0.07279115"/><path d="m 14.03501,-8.7368509 v -1.5664651 h -0.559035 v 2.0381516 h 1.417971 v -0.4716865 z" id="path17" style="font-style:normal;font-variant:normal;font-weight:bold;font-stretch:normal;font-family:'MADE GoodTime Grotesk';-inkscape-font-specification:'MADE GoodTime Grotesk Bold';text-align:center;text-anchor:middle;fill:#333333;fill-opacity:1;stroke-width:0.07279115"/><path d="M 15.82913,-8.7368509 V -9.048397 h 0.826907 V -9.5200835 H 15.82913 v -0.3115461 h 0.917168 v -0.4716864 h -1.473293 v 2.0381516 h 1.522791 v -0.4716865 z" id="path19" style="font-style:normal;font-variant:normal;font-weight:bold;font-stretch:normal;font-family:'MADE GoodTime Grotesk';-inkscape-font-specification:'MADE GoodTime Grotesk Bold';text-align:center;text-anchor:middle;fill:#333333;fill-opacity:1;stroke-width:0.07279115"/></g><ellipse cx="18.125694" cy="-13.353742" id="ellipse315" rx="0.55663282" ry="0.56283009" style="opacity:1;fill:#333333;fill-opacity:1;fill-rule:evenodd;stroke:none;stroke-width:0.97710192;stroke-linecap:round;stroke-linejoin:round;stroke-miterlimit:4;stroke-dasharray:none;stroke-dashoffset:0;stroke-opacity:1;paint-order:fill markers stroke" transform="matrix(0.99989681,-0.01436578,-0.01436578,-0.99989681,0,0)"/><ellipse cx="5.8608956" cy="-12.400556" id="ellipse317" rx="0.55663282" ry="0.56283009" style="opacity:1;fill:#333333;fill-opacity:1;fill-rule:evenodd;stroke:none;stroke-width:0.97710192;stroke-linecap:round;stroke-linejoin:round;stroke-miterlimit:4;stroke-dasharray:none;stroke-dashoffset:0;stroke-opacity:1;paint-order:fill markers stroke" transform="matrix(0.99989681,-0.01436578,-0.01436578,-0.99989681,0,0)"/><path d="m 6.235359,12.53069 c -0.05405,0.216172 5.566142,5.302564 5.566142,5.302564 l 6.265293,-4.436137" id="path319" style="fill:none;stroke:#333333;stroke-width:0.69668359;stroke-linecap:round;stroke-linejoin:round;stroke-miterlimit:4;stroke-dasharray:none;stroke-opacity:1"/></g></svg>