<?xml version="1.0" encoding="utf-8"?>
<!-- Generator: Adobe Illustrator 23.0.0, SVG Export Plug-In . SVG Version: 6.00 Build 0)  -->
<svg version="1.1" id="recent-time-search-reload-time"
	 xmlns="http://www.w3.org/2000/svg" xmlns:xlink="http://www.w3.org/1999/xlink" x="0px" y="0px" viewBox="0 0 14.9 13"
	 style="enable-background:new 0 0 14.9 13;" xml:space="preserve">
<style type="text/css">
	.st0{fill:#FFFFFF;}
</style>
<path class="st0" d="M8.4,0c-3,0-5.5,2.1-6.3,4.8L0.9,2.3L0,2.7l2.3,4.5l4.5-3.4L6.1,3.1L3.1,5.4C3.6,2.9,5.8,1,8.4,1
	c3,0,5.5,2.5,5.5,5.5S11.5,12,8.4,12v1c3.6,0,6.5-2.9,6.5-6.5S12,0,8.4,0z"/>
<polygon class="st0" points="7.9,3.5 7.9,6.8 11.2,8.9 11.7,8.1 8.9,6.2 8.9,3.5 "/>
</svg>
