<?xml version="1.0" encoding="utf-8"?>
<!-- Generator: Adobe Illustrator 23.0.0, SVG Export Plug-In . SVG Version: 6.00 Build 0)  -->
<svg version="1.1" id="Layer_1" xmlns="http://www.w3.org/2000/svg" xmlns:xlink="http://www.w3.org/1999/xlink" x="0px" y="0px"
	 viewBox="0 0 32 32" style="enable-background:new 0 0 32 32;" xml:space="preserve">
<style type="text/css">
	.st0{fill:#FFFFFF;}
</style>
<title></title>
<g>
	<path class="st0" d="M24,30H8c-2.8,0-5-2.2-5-5c0-0.1,0-0.2,0.1-0.4C5,19.5,10,16,15.5,16h0.9c5.5,0,10.5,3.5,12.5,8.6
		c0,0.1,0.1,0.2,0.1,0.4C29,27.8,26.8,30,24,30z M5,25.2C5.1,26.8,6.4,28,8,28h16c1.6,0,2.9-1.2,3-2.8c-1.7-4.3-5.9-7.2-10.5-7.2
		h-0.9C10.9,18,6.7,20.9,5,25.2z"/>
	<path class="st0" d="M16,15c-3.3,0-6-2.7-6-6s2.7-6,6-6s6,2.7,6,6S19.3,15,16,15z M16,5c-2.2,0-4,1.8-4,4s1.8,4,4,4s4-1.8,4-4
		S18.2,5,16,5z"/>
	<path class="st0" d="M24,30H8c-2.8,0-5-2.2-5-5c0-0.1,0-0.2,0.1-0.4C5,19.5,10,16,15.5,16h0.9c5.5,0,10.5,3.5,12.5,8.6
		c0,0.1,0.1,0.2,0.1,0.4C29,27.8,26.8,30,24,30z M5,25.2C5.1,26.8,6.4,28,8,28h16c1.6,0,2.9-1.2,3-2.8c-1.7-4.3-5.9-7.2-10.5-7.2
		h-0.9C10.9,18,6.7,20.9,5,25.2z"/>
</g>
</svg>
