<?xml version="1.0" ?><svg height="32" id="svg2" version="1.1" viewBox="0 0 32 32" width="32" xml:space="preserve" xmlns="http://www.w3.org/2000/svg" xmlns:cc="http://creativecommons.org/ns#" xmlns:dc="http://purl.org/dc/elements/1.1/" xmlns:inkscape="http://www.inkscape.org/namespaces/inkscape" xmlns:rdf="http://www.w3.org/1999/02/22-rdf-syntax-ns#" xmlns:sodipodi="http://sodipodi.sourceforge.net/DTD/sodipodi-0.dtd" xmlns:svg="http://www.w3.org/2000/svg"><defs id="defs6"/><g id="g10" transform="matrix(1.3333333,0,0,-1.3333333,0,32)"><rect height="7.0871224" id="rect327" ry="1.7062995" style="fill:none;fill-opacity:1;stroke:#333333;stroke-width:0.77409285;stroke-linecap:round;stroke-linejoin:round;stroke-miterlimit:4;stroke-dasharray:none;stroke-opacity:1" transform="matrix(0.99999574,0.00291754,0.00291754,-0.99999574,0,0)" width="15.591668" x="4.3777356" y="-13.923677"/><g aria-label="SOLD" id="text331" style="font-style:normal;font-weight:normal;font-size:2.91164541px;line-height:1.25;font-family:sans-serif;text-align:center;letter-spacing:0px;word-spacing:0px;text-anchor:middle;fill:#333333;fill-opacity:1;stroke:none;stroke-width:0.07279115" transform="matrix(0.99999574,0.00291754,0.00291754,-0.99999574,0,0)"><path d="m 8.7015912,-10.895314 c 0.049498,-0.238755 0.5706825,-0.136847 0.7570278,0.04076 l 0.1979919,-0.436747 c -0.043675,-0.03494 -0.2387549,-0.174698 -0.6347387,-0.197992 -0.6230921,-0.03494 -0.8443772,0.253314 -0.8822285,0.556125 -0.098996,0.812349 1.0598389,0.617268 0.9812245,0.9841358 -0.046586,0.2241967 -0.6463853,0.1339357 -0.8764053,-0.1281128 l -0.2562248,0.422189 c 0.1688754,0.1252007 0.4658633,0.2620481 0.7774093,0.2940762 0.3348392,0.03494 0.9142567,-0.01747 0.9579314,-0.5939757 0.05241,-0.7337345 -1.0889554,-0.6260035 -1.0219876,-0.9404615 z" id="path117" style="font-style:normal;font-variant:normal;font-weight:bold;font-stretch:normal;font-family:'MADE GoodTime Grotesk';-inkscape-font-specification:'MADE GoodTime Grotesk Bold';text-align:center;text-anchor:middle;fill:#333333;fill-opacity:1;stroke-width:0.07279115"/><path d="m 11.087685,-11.48929 c -0.588153,0 -1.0976907,0.47751 -1.0976907,1.065663 0,0.588152 0.5095377,1.0627502 1.0976907,1.0627502 0.588152,0 1.094778,-0.4745982 1.094778,-1.0627502 0,-0.588153 -0.506626,-1.065663 -1.094778,-1.065663 z m 0,1.6217869 c -0.308635,0 -0.559036,-0.2474899 -0.559036,-0.5561239 0,-0.308635 0.250401,-0.559036 0.559036,-0.559036 0.308634,0 0.559036,0.250401 0.559036,0.559036 0,0.308634 -0.250402,0.5561239 -0.559036,0.5561239 z" id="path119" style="font-style:normal;font-variant:normal;font-weight:bold;font-stretch:normal;font-family:'MADE GoodTime Grotesk';-inkscape-font-specification:'MADE GoodTime Grotesk Bold';text-align:center;text-anchor:middle;fill:#333333;fill-opacity:1;stroke-width:0.07279115"/><path d="m 13.091033,-9.8762381 v -1.5664649 h -0.559036 v 2.0381515 h 1.417972 v -0.4716866 z" id="path121" style="font-style:normal;font-variant:normal;font-weight:bold;font-stretch:normal;font-family:'MADE GoodTime Grotesk';-inkscape-font-specification:'MADE GoodTime Grotesk Bold';text-align:center;text-anchor:middle;fill:#333333;fill-opacity:1;stroke-width:0.07279115"/><path d="m 15.132642,-11.442703 h -0.803614 v 2.0381515 h 0.803614 c 0.75994,0 1.132631,-0.4716866 1.132631,-1.0190755 0,-0.54739 -0.369779,-1.019076 -1.132631,-1.019076 z m -0.03785,1.5664649 h -0.209638 v -1.0947789 h 0.209638 c 0.465863,0 0.652209,0.244578 0.652209,0.54739 0,0.299899 -0.186346,0.5473889 -0.652209,0.5473889 z" id="path123" style="font-style:normal;font-variant:normal;font-weight:bold;font-stretch:normal;font-family:'MADE GoodTime Grotesk';-inkscape-font-specification:'MADE GoodTime Grotesk Bold';text-align:center;text-anchor:middle;fill:#333333;fill-opacity:1;stroke-width:0.07279115"/></g><ellipse cx="17.185331" cy="-14.41944" id="ellipse333" rx="0.55663282" ry="0.56283009" style="opacity:1;fill:#333333;fill-opacity:1;fill-rule:evenodd;stroke:none;stroke-width:0.97710192;stroke-linecap:round;stroke-linejoin:round;stroke-miterlimit:4;stroke-dasharray:none;stroke-dashoffset:0;stroke-opacity:1;paint-order:fill markers stroke" transform="matrix(0.9968467,-0.07935151,-0.07935151,-0.9968467,0,0)"/><ellipse cx="4.9205189" cy="-13.466266" id="ellipse335" rx="0.55663282" ry="0.56283009" style="opacity:1;fill:#333333;fill-opacity:1;fill-rule:evenodd;stroke:none;stroke-width:0.97710192;stroke-linecap:round;stroke-linejoin:round;stroke-miterlimit:4;stroke-dasharray:none;stroke-dashoffset:0;stroke-opacity:1;paint-order:fill markers stroke" transform="matrix(0.9968467,-0.07935151,-0.07935151,-0.9968467,0,0)"/><path d="m 6.1855108,13.235596 c -0.0399,0.219236 5.9378062,4.981121 5.9378062,4.981121 l 5.92494,-4.885843" id="path337" style="fill:none;stroke:#333333;stroke-width:0.69668359;stroke-linecap:round;stroke-linejoin:round;stroke-miterlimit:4;stroke-dasharray:none;stroke-opacity:1"/></g></svg>